<?xml version="1.0" encoding="utf-8"?>
<!-- Generator: Adobe Illustrator 25.0.1, SVG Export Plug-In . SVG Version: 6.00 Build 0)  -->
<svg version="1.1" id="logo" xmlns="http://www.w3.org/2000/svg" xmlns:xlink="http://www.w3.org/1999/xlink" x="0px" y="0px"
	 viewBox="0 0 359.2 387.7" style="enable-background:new 0 0 359.2 387.7;" xml:space="preserve">
<style type="text/css">
	.st0{opacity:0.4;fill:#E1F1F4;enable-background:new    ;}
	.st1{opacity:0.6;fill:#E1F1F4;enable-background:new    ;}
	.st2{opacity:0.7;fill:#F2F2F2;enable-background:new    ;}
	.st3{fill:#5C28EC;}
	.st4{fill:#4822D3;}
	.st5{fill:#FFFFFF;}
	.st6{fill:#F2F2F2;}
</style>
<g>
	<g>
		<polygon class="st0" points="0,242.6 48.7,214.5 97.3,242.6 97.3,298.8 74.3,312.1 68.7,315.3 48.7,326.9 0,298.8 		"/>
		<polygon class="st1" points="292.5,162.4 319.3,146.9 346.1,162.4 346.1,193.3 333.4,200.7 330.3,202.4 319.3,208.8 292.5,193.3 
					"/>
		<polygon class="st0" points="321.9,213.2 340.5,202.4 359.2,213.2 359.2,234.7 350.3,239.8 348.2,241.1 340.5,245.5 321.9,234.7 
					"/>
		<polygon class="st1" points="81.1,316.5 109,300.4 137,316.5 137,348.8 123.8,356.5 120.6,358.4 109,365 81.1,348.8 		"/>
		<polygon class="st1" points="5.2,203.5 19.2,195.4 33.2,203.5 33.2,219.7 26.6,223.5 25,224.4 19.2,227.7 5.2,219.7 		"/>
		<polygon class="st1" points="311.4,247.4 321.9,241.3 332.3,247.4 332.3,259.4 327.4,262.3 326.2,263 321.9,265.4 311.4,259.4 		
			"/>
		<polygon class="st1" points="143,320.9 153.4,314.8 163.8,320.9 163.8,332.9 158.9,335.7 157.7,336.4 153.4,338.9 143,332.9 		"/>
	</g>
	<g>
		<ellipse class="st2" cx="238.3" cy="376.7" rx="112.7" ry="11"/>
		<g>
			<g>
				<polygon class="st3" points="36,80.4 175.4,0 314.7,80.4 314.7,241.3 248.7,279.4 270.1,375.6 36,241.3 				"/>
				<polygon class="st3" points="48.7,87.7 175.4,14.6 302.1,87.7 302.1,234 242.1,268.7 227.5,277.1 175.4,307.2 48.7,234 				"/>
				<polygon class="st4" points="175.4,14.6 48.7,87.7 48.7,93.8 167.8,25.1 290,95.6 290,236.7 232.1,270.1 218,278.2 171.6,305 
					175.4,307.2 227.5,277.1 242.1,268.7 302.1,234 302.1,87.7 				"/>
			</g>
			<g>
				<g>
					<g>
						<path class="st5" d="M223.9,86.1c-12.1-11.8-28.4-17.6-48.8-17.6c-19.5,0-35.2,5.8-47.1,17.4c-11.8,11.5-18.3,25.6-19.3,42
							h33.8c2.4-9.3,6.2-16.3,11.4-21.2c6.1-5.7,13.7-8.5,22.8-8.5c9.3,0,16.8,2.7,22.3,8.2s8.3,12,8.3,19.5
							c0,5.6-1.6,10.7-4.8,15.2c-2,2.9-8.2,8.9-18.6,18.2c-10.4,9.3-17.3,17.7-20.8,25.1c-3.5,7.5-5.2,16.9-5.2,28.4
							c0,1.2,0.1,4.3,0.2,9.4h32.4c-0.2-10.8,0.6-18.3,2.4-22.4c1.8-4.2,6.5-9.7,14.1-16.6c14.5-13.4,24-23.9,28.4-31.6
							c4.4-7.7,6.6-15.9,6.6-24.6C242,111.6,236,97.9,223.9,86.1z"/>
						<circle class="st5" cx="174.2" cy="249.9" r="20.8"/>
					</g>
				</g>
			</g>
			<g>
				<g>
					<g>
						<g>
							<path class="st6" d="M130,86.9c11.9-11.6,27.6-17.4,47.1-17.4c12.5,0,23.5,2.2,32.9,6.7c-9.8-5.1-21.5-7.7-34.9-7.7
								c-19.5,0-35.2,5.8-47.1,17.4c-11.8,11.5-18.3,25.6-19.3,42h2.1C112,111.9,118.4,98.2,130,86.9z"/>
							<path class="st6" d="M159.9,213.9c0-11.4,1.7-20.9,5.2-28.4s10.4-15.9,20.8-25.1c10.4-9.3,16.6-15.4,18.6-18.2
								c3.2-4.5,4.8-9.6,4.8-15.2c0-7.5-2.8-14-8.3-19.5c-2.3-2.2-4.9-4-7.8-5.3c2.1,1.2,4,2.6,5.8,4.3c5.5,5.5,8.3,12,8.3,19.5
								c0,5.6-1.6,10.7-4.8,15.2c-2,2.9-8.2,8.9-18.6,18.2c-10.4,9.3-17.3,17.7-20.8,25.1c-3.5,7.5-5.2,16.9-5.2,28.4
								c0,1.2,0.1,4.3,0.2,9.4h2C160,217.8,159.9,215,159.9,213.9z"/>
						</g>
						<path class="st6" d="M155.4,250.9c0-11.5,9.3-20.8,20.8-20.8c2.9,0,5.7,0.6,8.2,1.7c-3-1.7-6.5-2.7-10.2-2.7
							c-11.5,0-20.8,9.3-20.8,20.8c0,8.6,5.2,16,12.6,19.1C159.7,265.4,155.4,258.6,155.4,250.9z"/>
					</g>
				</g>
			</g>
		</g>
	</g>
</g>
</svg>
